<svg width="104" height="104" viewBox="0 0 104 104" fill="none" xmlns="http://www.w3.org/2000/svg">
<path d="M84.7987 49.9797C84.7987 49.9797 84.0473 50.9746 82.5604 52.581C81.0736 54.1875 53.7359 83.7227 53.7359 83.7227C53.2559 84.2413 52.6285 84.5 51.9998 84.5C51.3712 84.5 50.7438 84.2413 50.2638 83.7227C50.2638 83.7227 22.9261 54.1861 21.4392 52.5797C19.9524 50.9733 19.201 49.9784 19.201 49.9784C16.6951 46.7536 15.1665 42.6135 15.1665 38.0714C15.1665 27.8147 22.8622 19.5 32.3554 19.5C37.102 19.5 41.3992 21.5773 44.5092 24.9401L44.5202 24.9282C44.5202 24.9282 47.9702 28.2075 50.2638 31.1323C52.5904 34.0995 51.4092 34.0995 53.7359 31.1323C56.0295 28.2075 59.4795 24.9282 59.4795 24.9282C59.4795 24.9282 59.4858 24.9443 59.4905 24.9401C63.0813 21.6769 66.8977 19.5 71.6443 19.5C81.1375 19.5 88.8332 27.8147 88.8332 38.0714C88.8332 42.6135 87.3046 46.7536 84.7987 49.9797Z" fill="#EC3C1F"/>
</svg>
