<svg width="104" height="104" viewBox="0 0 104 104" fill="none" xmlns="http://www.w3.org/2000/svg">
<path d="M48.3767 16.3309C49.4867 13.1502 50.0414 11.5599 50.8623 11.1191C51.5724 10.7376 52.4272 10.7376 53.1378 11.1191C53.9582 11.5599 54.5129 13.1502 55.6229 16.3309L62.9602 37.3584C63.2762 38.2637 63.4339 38.7163 63.7188 39.0534C63.97 39.3511 64.2908 39.5832 64.6528 39.7294C65.0622 39.8949 65.5431 39.9046 66.5049 39.9241L88.8473 40.3777C92.227 40.4463 93.9167 40.4806 94.5913 41.1219C95.1748 41.6768 95.439 42.4871 95.2942 43.2778C95.1274 44.1916 93.7805 45.2084 91.0869 47.2432L73.2789 60.6921C72.5122 61.2714 72.1291 61.5609 71.8951 61.9344C71.6885 62.2649 71.5662 62.6404 71.5384 63.0282C71.5073 63.4676 71.6463 63.9262 71.9249 64.8437L78.3963 86.1516C79.3749 89.3748 79.8644 90.9863 79.4607 91.8231C79.1112 92.5477 78.4193 93.0483 77.6195 93.1557C76.6956 93.2795 75.3085 92.318 72.5338 90.3945L54.1907 77.6793C53.401 77.1319 53.0064 76.8582 52.5773 76.7517C52.1981 76.6581 51.8015 76.6581 51.4228 76.7517C50.9936 76.8582 50.5985 77.1319 49.8089 77.6793L31.466 90.3945C28.6914 92.318 27.3042 93.2795 26.3802 93.1557C25.5806 93.0483 24.8887 92.5477 24.5392 91.8231C24.1354 90.9863 24.6249 89.3748 25.6037 86.1516L32.0749 64.8437C32.3534 63.9262 32.4927 63.4676 32.4614 63.0282C32.4337 62.6404 32.3112 62.2649 32.1046 61.9344C31.8708 61.5609 31.4874 61.2714 30.7208 60.6921L12.9131 47.2432C10.2195 45.2084 8.87263 44.1916 8.70543 43.2778C8.56068 42.4871 8.82497 41.6768 9.40863 41.1219C10.083 40.4806 11.7727 40.4463 15.1523 40.3777L37.4947 39.9241C38.4565 39.9046 38.9374 39.8949 39.3472 39.7294C39.7091 39.5832 40.0298 39.3511 40.2812 39.0534C40.5658 38.7163 40.7237 38.2637 41.0396 37.3584L48.3767 16.3309Z" fill="#F6C517" stroke="#F6C517" stroke-width="4.33333" stroke-linecap="round" stroke-linejoin="round"/>
<path d="M36.7973 47.6213H37.1093C37.2249 47.6213 37.3636 47.5636 37.5253 47.448C37.7102 47.3324 37.9067 47.2053 38.1147 47.0667C38.3458 46.9049 38.6116 46.72 38.912 46.512C39.2356 46.304 39.5938 46.1191 39.9867 45.9573C40.4027 45.7724 40.8649 45.6222 41.3733 45.5067C41.8818 45.3911 42.448 45.3333 43.072 45.3333C43.8578 45.3333 44.6204 45.4489 45.36 45.68C46.0996 45.888 46.7582 46.2231 47.336 46.6853C47.9138 47.1244 48.376 47.6907 48.7227 48.384C49.0693 49.0773 49.2427 49.9093 49.2427 50.88C49.2427 51.6889 49.104 52.4284 48.8267 53.0987C48.5493 53.7689 48.168 54.3929 47.6827 54.9707C47.2204 55.5484 46.6889 56.1031 46.088 56.6347C45.5102 57.1431 44.9093 57.6516 44.2853 58.16C43.6844 58.6453 43.0951 59.1422 42.5173 59.6507C41.9627 60.1591 41.4542 60.6907 40.992 61.2453C40.5529 61.8 40.1831 62.4009 39.8827 63.048C39.5822 63.672 39.4089 64.3422 39.3627 65.0587H46.5733C47.4516 65.0587 48.1449 64.9084 48.6533 64.608C49.1618 64.2844 49.4276 63.7644 49.4507 63.048H49.7627V67H36.936C36.936 65.96 37.1093 65.0009 37.456 64.1227C37.8027 63.2213 38.2533 62.4009 38.808 61.6613C39.3627 60.8987 39.9751 60.1938 40.6453 59.5467C41.3387 58.8996 42.0204 58.2756 42.6907 57.6747C43.2453 57.1893 43.7769 56.704 44.2853 56.2187C44.8169 55.7333 45.2791 55.248 45.672 54.7627C46.088 54.2542 46.4116 53.7342 46.6427 53.2027C46.8969 52.648 47.024 52.0702 47.024 51.4693C47.024 50.7067 46.8853 50.0249 46.608 49.424C46.3538 48.8231 46.0071 48.3147 45.568 47.8987C45.152 47.4827 44.6667 47.1707 44.112 46.9627C43.5573 46.7316 43.0027 46.616 42.448 46.616C41.2693 46.616 40.2293 46.9742 39.328 47.6907C38.4267 48.384 37.6987 49.2853 37.144 50.3947H36.7973V47.6213ZM52.1446 56.2533C52.1446 54.4738 52.3642 52.9022 52.8033 51.5387C53.2655 50.1751 53.8664 49.0427 54.606 48.1413C55.3455 47.2169 56.1775 46.5236 57.102 46.0613C58.0495 45.576 59.0086 45.3333 59.9793 45.3333C60.95 45.3333 61.9091 45.576 62.8566 46.0613C63.8042 46.5236 64.6362 47.2169 65.3526 48.1413C66.0922 49.0427 66.6815 50.1751 67.1206 51.5387C67.5829 52.9022 67.814 54.4738 67.814 56.2533C67.814 58.056 67.5829 59.6507 67.1206 61.0373C66.6815 62.4009 66.0922 63.5564 65.3526 64.504C64.6362 65.4284 63.8042 66.1333 62.8566 66.6187C61.9091 67.104 60.95 67.3467 59.9793 67.3467C59.0086 67.3467 58.0495 67.104 57.102 66.6187C56.1775 66.1333 55.3455 65.4284 54.606 64.504C53.8664 63.5564 53.2655 62.4009 52.8033 61.0373C52.3642 59.6507 52.1446 58.056 52.1446 56.2533ZM65.63 57.1547C65.63 55.4907 65.4451 54.0231 65.0753 52.752C64.7055 51.4578 64.2202 50.3831 63.6193 49.528C63.0415 48.6498 62.3713 47.9911 61.6086 47.552C60.8691 47.0898 60.1064 46.8587 59.3206 46.8587C58.5349 46.8587 57.8184 47.0898 57.1713 47.552C56.5473 47.9911 56.0158 48.5804 55.5766 49.32C55.1375 50.0596 54.7909 50.9147 54.5366 51.8853C54.3055 52.856 54.19 53.8729 54.19 54.936C54.19 56.2071 54.3402 57.5013 54.6406 58.8187C54.9411 60.1129 55.3686 61.2916 55.9233 62.3547C56.478 63.3947 57.1366 64.2498 57.8993 64.92C58.6851 65.5902 59.5402 65.9253 60.4646 65.9253C61.1349 65.9253 61.782 65.7404 62.406 65.3707C63.03 64.9778 63.5731 64.4116 64.0353 63.672C64.5206 62.9324 64.902 62.0196 65.1793 60.9333C65.4798 59.8471 65.63 58.5876 65.63 57.1547Z" fill="#F6C517"/>
</svg>
